<svg width="3497" height="1612" xmlns="http://www.w3.org/2000/svg" xmlns:xlink="http://www.w3.org/1999/xlink" xml:space="preserve" overflow="hidden"><defs><linearGradient x1="639" y1="582" x2="639" y2="763" gradientUnits="userSpaceOnUse" spreadMethod="reflect" id="fill0"><stop offset="0" stop-color="#F7BDA4"/><stop offset="0.5" stop-color="#F5B195"/><stop offset="1" stop-color="#F8A581"/></linearGradient><linearGradient x1="639" y1="818" x2="639" y2="999" gradientUnits="userSpaceOnUse" spreadMethod="reflect" id="fill1"><stop offset="0" stop-color="#F7BDA4"/><stop offset="0.5" stop-color="#F5B195"/><stop offset="1" stop-color="#F8A581"/></linearGradient><linearGradient x1="639" y1="1054" x2="639" y2="1235" gradientUnits="userSpaceOnUse" spreadMethod="reflect" id="fill2"><stop offset="0" stop-color="#F7BDA4"/><stop offset="0.5" stop-color="#F5B195"/><stop offset="1" stop-color="#F8A581"/></linearGradient><linearGradient x1="639" y1="1290" x2="639" y2="1471" gradientUnits="userSpaceOnUse" spreadMethod="reflect" id="fill3"><stop offset="0" stop-color="#F7BDA4"/><stop offset="0.5" stop-color="#F5B195"/><stop offset="1" stop-color="#F8A581"/></linearGradient><linearGradient x1="639" y1="1526" x2="639" y2="1707" gradientUnits="userSpaceOnUse" spreadMethod="reflect" id="fill4"><stop offset="0" stop-color="#F7BDA4"/><stop offset="0.5" stop-color="#F5B195"/><stop offset="1" stop-color="#F8A581"/></linearGradient><linearGradient x1="639" y1="1762" x2="639" y2="1943" gradientUnits="userSpaceOnUse" spreadMethod="reflect" id="fill5"><stop offset="0" stop-color="#F7BDA4"/><stop offset="0.5" stop-color="#F5B195"/><stop offset="1" stop-color="#F8A581"/></linearGradient><linearGradient x1="639" y1="1998" x2="639" y2="2179" gradientUnits="userSpaceOnUse" spreadMethod="reflect" id="fill6"><stop offset="0" stop-color="#F7BDA4"/><stop offset="0.5" stop-color="#F5B195"/><stop offset="1" stop-color="#F8A581"/></linearGradient><linearGradient x1="970.5" y1="582" x2="970.5" y2="763" gradientUnits="userSpaceOnUse" spreadMethod="reflect" id="fill7"><stop offset="0" stop-color="#A8B7DF"/><stop offset="0.5" stop-color="#9AABD9"/><stop offset="1" stop-color="#879ED7"/></linearGradient><linearGradient x1="970.5" y1="1290" x2="970.5" y2="1471" gradientUnits="userSpaceOnUse" spreadMethod="reflect" id="fill8"><stop offset="0" stop-color="#A8B7DF"/><stop offset="0.5" stop-color="#9AABD9"/><stop offset="1" stop-color="#879ED7"/></linearGradient><linearGradient x1="970.5" y1="1998" x2="970.5" y2="2179" gradientUnits="userSpaceOnUse" spreadMethod="reflect" id="fill9"><stop offset="0" stop-color="#A8B7DF"/><stop offset="0.5" stop-color="#9AABD9"/><stop offset="1" stop-color="#879ED7"/></linearGradient><linearGradient x1="1316.5" y1="582" x2="1316.5" y2="2179" gradientUnits="userSpaceOnUse" spreadMethod="reflect" id="fill10"><stop offset="0" stop-color="#D2D2D2"/><stop offset="0.5" stop-color="#C8C8C8"/><stop offset="1" stop-color="#C0C0C0"/></linearGradient><linearGradient x1="2382.5" y1="577" x2="2382.5" y2="2173" gradientUnits="userSpaceOnUse" spreadMethod="reflect" id="fill11"><stop offset="0" stop-color="#B5D5A7"/><stop offset="0.5" stop-color="#AACE99"/><stop offset="1" stop-color="#9CCA86"/></linearGradient><linearGradient x1="3536" y1="582" x2="3536" y2="1054" gradientUnits="userSpaceOnUse" spreadMethod="reflect" id="fill12"><stop offset="0" stop-color="#FFDD9C"/><stop offset="0.5" stop-color="#FFD78E"/><stop offset="1" stop-color="#FFD479"/></linearGradient><linearGradient x1="3536" y1="1142" x2="3536" y2="1614" gradientUnits="userSpaceOnUse" spreadMethod="reflect" id="fill13"><stop offset="0" stop-color="#FFDD9C"/><stop offset="0.5" stop-color="#FFD78E"/><stop offset="1" stop-color="#FFD479"/></linearGradient><linearGradient x1="3536" y1="1701" x2="3536" y2="2173" gradientUnits="userSpaceOnUse" spreadMethod="reflect" id="fill14"><stop offset="0" stop-color="#FFDD9C"/><stop offset="0.5" stop-color="#FFD78E"/><stop offset="1" stop-color="#FFD479"/></linearGradient><linearGradient x1="3938.5" y1="582" x2="3938.5" y2="1054" gradientUnits="userSpaceOnUse" spreadMethod="reflect" id="fill15"><stop offset="0" stop-color="#F7BDA4"/><stop offset="0.5" stop-color="#F5B195"/><stop offset="1" stop-color="#F8A581"/></linearGradient><linearGradient x1="3935" y1="1142" x2="3935" y2="1614" gradientUnits="userSpaceOnUse" spreadMethod="reflect" id="fill16"><stop offset="0" stop-color="#F7BDA4"/><stop offset="0.5" stop-color="#F5B195"/><stop offset="1" stop-color="#F8A581"/></linearGradient><linearGradient x1="3938.5" y1="1701" x2="3938.5" y2="2173" gradientUnits="userSpaceOnUse" spreadMethod="reflect" id="fill17"><stop offset="0" stop-color="#F7BDA4"/><stop offset="0.5" stop-color="#F5B195"/><stop offset="1" stop-color="#F8A581"/></linearGradient></defs><g transform="translate(-551 -576)"><rect x="554" y="582" width="170" height="181" stroke="#ED7D31" stroke-width="2.29167" stroke-miterlimit="8" fill="url(#fill0)"/><text font-family="LM Roman 10,LM Roman 10_MSFontService,sans-serif" font-weight="700" font-size="83" transform="matrix(1 0 0 1 606.34 702)">P</text><rect x="554" y="818" width="170" height="181" stroke="#ED7D31" stroke-width="2.29167" stroke-miterlimit="8" fill="url(#fill1)"/><text font-family="LM Roman 10,LM Roman 10_MSFontService,sans-serif" font-weight="700" font-size="83" transform="matrix(1 0 0 1 613.788 938)">q</text><rect x="554" y="1054" width="170" height="181" stroke="#ED7D31" stroke-width="2.29167" stroke-miterlimit="8" fill="url(#fill2)"/><text font-family="LM Roman 10,LM Roman 10_MSFontService,sans-serif" font-weight="400" font-size="83" transform="matrix(1 0 0 1 622.668 1174)">r</text><rect x="554" y="1290" width="170" height="181" stroke="#ED7D31" stroke-width="2.29167" stroke-miterlimit="8" fill="url(#fill3)"/><text font-family="LM Roman 10,LM Roman 10_MSFontService,sans-serif" font-weight="700" font-size="83" transform="matrix(1 0 0 1 601.47 1410)">G</text><rect x="554" y="1526" width="170" height="181" stroke="#ED7D31" stroke-width="2.29167" stroke-miterlimit="8" fill="url(#fill4)"/><text font-family="LM Roman 10,LM Roman 10_MSFontService,sans-serif" font-weight="700" font-size="83" transform="matrix(1 0 0 1 612.356 1646)">h</text><rect x="554" y="1762" width="170" height="181" stroke="#ED7D31" stroke-width="2.29167" stroke-miterlimit="8" fill="url(#fill5)"/><text font-family="LM Roman 10,LM Roman 10_MSFontService,sans-serif" font-weight="700" font-size="83" transform="matrix(1 0 0 1 602.903 1882)">A</text><rect x="554" y="1998" width="170" height="181" stroke="#ED7D31" stroke-width="2.29167" stroke-miterlimit="8" fill="url(#fill6)"/><text font-family="LM Roman 10,LM Roman 10_MSFontService,sans-serif" font-weight="700" font-size="83" transform="matrix(1 0 0 1 612.356 2118)">b</text><rect x="802" y="582" width="337" height="181" stroke="#4472C4" stroke-width="2.29167" stroke-miterlimit="8" fill="url(#fill7)"/><text font-family="LM Roman 10,LM Roman 10_MSFontService,sans-serif" font-weight="400" font-size="83" transform="matrix(1 0 0 1 838.14 702)">Flatten</text><rect x="802" y="1290" width="337" height="181" stroke="#4472C4" stroke-width="2.29167" stroke-miterlimit="8" fill="url(#fill8)"/><text font-family="LM Roman 10,LM Roman 10_MSFontService,sans-serif" font-weight="400" font-size="83" transform="matrix(1 0 0 1 838.14 1410)">Flatten</text><rect x="802" y="1998" width="337" height="181" stroke="#4472C4" stroke-width="2.29167" stroke-miterlimit="8" fill="url(#fill9)"/><text font-family="LM Roman 10,LM Roman 10_MSFontService,sans-serif" font-weight="400" font-size="83" transform="matrix(1 0 0 1 838.14 2118)">Flatten</text><rect x="1231" y="582" width="171" height="1597" stroke="#A5A5A5" stroke-width="2.29167" stroke-miterlimit="8" fill="url(#fill10)"/><text font-family="LM Roman 10,LM Roman 10_MSFontService,sans-serif" font-weight="400" font-size="83" transform="matrix(6.12323e-17 -1 1 6.12323e-17 1345.95 1605)">Concatenate</text><rect x="1493" y="577" width="1779" height="1596" stroke="#70AD47" stroke-width="2.29167" stroke-miterlimit="8" fill="url(#fill11)"/><text font-family="LM Roman 10,LM Roman 10_MSFontService,sans-serif" font-weight="400" font-size="83" transform="matrix(1 0 0 1 2122.58 1355)">Hidden Layers</text><rect x="3350" y="582" width="372" height="472" stroke="#FFC000" stroke-width="2.29167" stroke-miterlimit="8" fill="url(#fill12)"/><text font-family="LM Roman 10,LM Roman 10_MSFontService,sans-serif" font-weight="400" font-size="83" transform="matrix(1 0 0 1 3453.47 798)">Sub</text><text font-family="LM Roman 10,LM Roman 10_MSFontService,sans-serif" font-weight="400" font-size="83" transform="matrix(1 0 0 1 3590.97 798)">-</text><text font-family="LM Roman 10,LM Roman 10_MSFontService,sans-serif" font-weight="400" font-size="83" transform="matrix(1 0 0 1 3406.49 897)">Hidden </text><rect x="3350" y="1142" width="372" height="472" stroke="#FFC000" stroke-width="2.29167" stroke-miterlimit="8" fill="url(#fill13)"/><text font-family="LM Roman 10,LM Roman 10_MSFontService,sans-serif" font-weight="400" font-size="83" transform="matrix(1 0 0 1 3453.47 1358)">Sub</text><text font-family="LM Roman 10,LM Roman 10_MSFontService,sans-serif" font-weight="400" font-size="83" transform="matrix(1 0 0 1 3590.97 1358)">-</text><text font-family="LM Roman 10,LM Roman 10_MSFontService,sans-serif" font-weight="400" font-size="83" transform="matrix(1 0 0 1 3406.49 1457)">Hidden</text><rect x="3350" y="1701" width="372" height="472" stroke="#FFC000" stroke-width="2.29167" stroke-miterlimit="8" fill="url(#fill14)"/><text font-family="LM Roman 10,LM Roman 10_MSFontService,sans-serif" font-weight="400" font-size="83" transform="matrix(1 0 0 1 3453.47 1917)">Sub</text><text font-family="LM Roman 10,LM Roman 10_MSFontService,sans-serif" font-weight="400" font-size="83" transform="matrix(1 0 0 1 3590.97 1917)">-</text><text font-family="LM Roman 10,LM Roman 10_MSFontService,sans-serif" font-weight="400" font-size="83" transform="matrix(1 0 0 1 3406.49 2016)">Hidden</text><rect x="3830" y="582" width="217" height="472" stroke="#ED7D31" stroke-width="2.29167" stroke-miterlimit="8" fill="url(#fill15)"/><text font-family="LM Roman 10,LM Roman 10_MSFontService,sans-serif" font-weight="700" font-size="83" transform="matrix(1 0 0 1 3874.26 847)">x</text><text font-family="LM Roman 10,LM Roman 10_MSFontService,sans-serif" font-weight="400" font-size="55" transform="matrix(1 0 0 1 3924.1 867)">opt</text><rect x="3827" y="1142" width="216" height="472" stroke="#ED7D31" stroke-width="2.29167" stroke-miterlimit="8" fill="url(#fill16)"/><rect x="3830" y="1701" width="217" height="472" stroke="#ED7D31" stroke-width="2.29167" stroke-miterlimit="8" fill="url(#fill17)"/><path d="M3895.1 1348.85C3898.75 1358.21 3903.01 1371.84 3904.44 1373.89 3905.86 1375.85 3906.75 1375.85 3909.15 1375.85L3911.1 1375.85C3911.99 1375.76 3912.08 1375.23 3912.08 1374.96 3912.08 1374.69 3911.9 1374.51 3911.64 1374.16 3910.75 1373.18 3910.21 1371.84 3909.59 1370.06L3891.46 1319.35C3889.59 1314.19 3884.79 1313.03 3880.61 1313.03 3880.17 1313.03 3879.01 1313.03 3879.01 1314.01 3879.01 1314.72 3879.73 1314.9 3879.81 1314.9 3882.75 1315.43 3883.37 1315.97 3885.59 1322.03L3894.21 1346.26 3869.68 1370.68C3868.61 1371.75 3868.08 1372.28 3868.08 1373.44 3868.08 1374.96 3869.33 1376.03 3870.75 1376.03 3872.17 1376.03 3872.97 1375.05 3873.68 1374.16L3895.1 1348.85Z" fill-rule="evenodd"/><path d="M3948.08 1371.89C3948.08 1365 3942.95 1361.03 3936.89 1361.03 3927.74 1361.03 3919.08 1369.66 3919.08 1378.16 3919.08 1384.37 3923.6 1389.03 3930.34 1389.03 3939.18 1389.03 3948.08 1380.83 3948.08 1371.89ZM3930.4 1387.29C3927.31 1387.29 3924.22 1385.3 3924.22 1380.4 3924.22 1377.85 3925.39 1371.77 3927.8 1368.23 3930.46 1364.38 3934.05 1362.77 3936.83 1362.77 3940.17 1362.77 3943.01 1365.06 3943.01 1369.66 3943.01 1371.15 3942.27 1377.29 3939.55 1381.64 3937.2 1385.3 3933.49 1387.29 3930.4 1387.29Z" fill-rule="evenodd"/><path d="M3954.71 1396.49C3954.29 1398.26 3954.17 1398.76 3951.73 1398.76 3950.94 1398.76 3950.08 1398.76 3950.08 1400.08 3950.08 1400.78 3950.63 1401.03 3950.94 1401.03 3952.52 1401.03 3954.53 1400.78 3956.18 1400.78 3958.25 1400.78 3960.56 1401.03 3962.57 1401.03 3963.12 1401.03 3963.79 1400.84 3963.79 1399.64 3963.79 1398.76 3962.94 1398.76 3962.21 1398.76 3960.87 1398.76 3959.22 1398.76 3959.22 1398 3959.22 1397.69 3959.65 1396.05 3959.89 1395.11 3960.62 1391.77 3961.48 1388.37 3962.15 1385.72 3962.88 1386.98 3964.77 1389.44 3968.42 1389.44 3975.86 1389.44 3984.08 1380.93 3984.08 1371.55 3984.08 1364.18 3979.15 1361.03 3974.94 1361.03 3971.17 1361.03 3967.94 1363.67 3966.29 1365.44 3965.26 1361.85 3961.84 1361.03 3960.02 1361.03 3957.64 1361.03 3956.18 1362.67 3955.2 1364.37 3953.98 1366.51 3953.01 1370.29 3953.01 1370.67 3953.01 1371.48 3953.86 1371.48 3954.04 1371.48 3954.9 1371.48 3954.96 1371.3 3955.38 1369.59 3956.3 1365.94 3957.46 1362.79 3959.83 1362.79 3961.42 1362.79 3961.84 1364.18 3961.84 1365.88 3961.84 1366.57 3961.72 1367.39 3961.66 1367.77L3954.71 1396.49ZM3966.23 1368.59C3969.76 1363.74 3972.81 1362.79 3974.76 1362.79 3977.14 1362.79 3979.21 1364.62 3979.21 1368.9 3979.21 1371.48 3977.87 1377.91 3976.04 1381.56 3974.52 1384.65 3971.53 1387.67 3968.42 1387.67 3964.1 1387.67 3963 1382.82 3963 1382.19 3963 1381.94 3963.12 1381.5 3963.18 1381.25L3966.23 1368.59Z" fill-rule="evenodd"/><path d="M4001.76 1364.15 4008.1 1364.15C4009.28 1364.15 4010.09 1364.15 4010.09 1362.8 4010.09 1361.94 4009.28 1361.94 4008.22 1361.94L4002.32 1361.94 4004.62 1352.85C4004.68 1352.55 4004.81 1352.24 4004.81 1351.99 4004.81 1350.89 4003.94 1350.03 4002.69 1350.03 4001.14 1350.03 4000.21 1351.07 3999.77 1352.67 3999.34 1354.2 4000.15 1351.26 3997.41 1361.94L3991.07 1361.94C3989.89 1361.94 3989.09 1361.94 3989.09 1363.29 3989.09 1364.15 3989.83 1364.15 3990.95 1364.15L3996.85 1364.15 3993.19 1378.65C3992.81 1380.18 3992.25 1382.39 3992.25 1383.19 3992.25 1386.82 3995.36 1389.03 3998.9 1389.03 4005.8 1389.03 4009.71 1380.43 4009.71 1379.63 4009.71 1378.83 4008.91 1378.83 4008.72 1378.83 4007.97 1378.83 4007.91 1378.95 4007.41 1380 4005.68 1383.87 4002.51 1387.31 3999.09 1387.31 3997.78 1387.31 3996.91 1386.51 3996.91 1384.3 3996.91 1383.68 3997.16 1382.39 3997.29 1381.78L4001.76 1364.15Z" fill-rule="evenodd"/><path d="M3895.33 1903.1C3895.33 1903 3895.33 1902.03 3894.17 1902.03 3892.12 1902.03 3885.61 1902.81 3883.29 1903 3882.58 1903.1 3881.6 1903.19 3881.6 1904.95 3881.6 1906.11 3882.4 1906.11 3883.74 1906.11 3888.02 1906.11 3888.2 1906.79 3888.2 1907.77 3888.2 1908.45 3887.13 1913.02 3886.5 1915.65L3881.06 1939.48C3880.7 1940.94 3880.08 1943.67 3880.08 1943.86 3880.08 1944.93 3880.97 1945.03 3881.51 1945.03L3882.76 1945.03C3889 1943.86 3898.72 1940.07 3907.9 1930.73 3919.67 1918.76 3922.08 1905.53 3922.08 1904.65 3922.08 1903 3921.01 1902.03 3919.49 1902.03 3918.78 1902.03 3916.73 1902.42 3916.02 1905.24 3910.31 1927.32 3896.76 1938.22 3886.59 1941.82L3895.33 1903.1Z" fill-rule="evenodd"/><path d="M3953.08 1941.67C3953.08 1934.28 3947.78 1930.03 3941.51 1930.03 3932.04 1930.03 3923.08 1939.27 3923.08 1948.39 3923.08 1955.04 3927.75 1960.03 3934.73 1960.03 3943.87 1960.03 3953.08 1951.25 3953.08 1941.67ZM3934.79 1958.16C3931.59 1958.16 3928.39 1956.04 3928.39 1950.78 3928.39 1948.05 3929.61 1941.53 3932.1 1937.74 3934.85 1933.62 3938.56 1931.89 3941.44 1931.89 3944.9 1931.89 3947.84 1934.35 3947.84 1939.27 3947.84 1940.87 3947.07 1947.45 3944.26 1952.11 3941.83 1956.04 3937.99 1958.16 3934.79 1958.16Z" fill-rule="evenodd"/><path d="M3959.85 1968.15C3959.41 1970.05 3959.29 1970.59 3956.78 1970.59 3955.96 1970.59 3955.08 1970.59 3955.08 1972.01 3955.08 1972.76 3955.65 1973.03 3955.96 1973.03 3957.59 1973.03 3959.66 1972.76 3961.36 1972.76 3963.49 1972.76 3965.87 1973.03 3967.94 1973.03 3968.51 1973.03 3969.2 1972.82 3969.2 1971.54 3969.2 1970.59 3968.32 1970.59 3967.57 1970.59 3966.19 1970.59 3964.49 1970.59 3964.49 1969.78 3964.49 1969.44 3964.93 1967.68 3965.18 1966.66 3965.94 1963.07 3966.81 1959.42 3967.5 1956.57 3968.26 1957.93 3970.2 1960.57 3973.96 1960.57 3981.62 1960.57 3990.08 1951.43 3990.08 1941.34 3990.08 1933.41 3985 1930.03 3980.68 1930.03 3976.79 1930.03 3973.46 1932.87 3971.77 1934.77 3970.7 1930.91 3967.19 1930.03 3965.31 1930.03 3962.86 1930.03 3961.36 1931.79 3960.35 1933.62 3959.1 1935.92 3958.09 1939.98 3958.09 1940.39 3958.09 1941.27 3958.97 1941.27 3959.16 1941.27 3960.04 1941.27 3960.1 1941.07 3960.54 1939.24 3961.48 1935.31 3962.67 1931.92 3965.12 1931.92 3966.75 1931.92 3967.19 1933.41 3967.19 1935.24 3967.19 1935.99 3967.06 1936.87 3967 1937.27L3959.85 1968.15ZM3971.71 1938.15C3975.34 1932.94 3978.48 1931.92 3980.49 1931.92 3982.93 1931.92 3985.07 1933.89 3985.07 1938.49 3985.07 1941.27 3983.69 1948.18 3981.8 1952.1 3980.24 1955.42 3977.16 1958.67 3973.96 1958.67 3969.51 1958.67 3968.38 1953.46 3968.38 1952.78 3968.38 1952.51 3968.51 1952.04 3968.57 1951.76L3971.71 1938.15Z" fill-rule="evenodd"/><path d="M4007.37 1932.6 4014.01 1932.6C4015.24 1932.6 4016.09 1932.6 4016.09 1931.11 4016.09 1930.16 4015.24 1930.16 4014.14 1930.16L4007.95 1930.16 4010.36 1920.14C4010.43 1919.8 4010.56 1919.47 4010.56 1919.19 4010.56 1917.98 4009.65 1917.03 4008.34 1917.03 4006.72 1917.03 4005.74 1918.18 4005.28 1919.94 4004.83 1921.63 4005.67 1918.38 4002.81 1930.16L3996.17 1930.16C3994.94 1930.16 3994.09 1930.16 3994.09 1931.65 3994.09 1932.6 3994.87 1932.6 3996.04 1932.6L4002.23 1932.6 3998.39 1948.58C3997.99 1950.28 3997.41 1952.71 3997.41 1953.59 3997.41 1957.59 4000.66 1960.03 4004.37 1960.03 4011.6 1960.03 4015.7 1950.55 4015.7 1949.67 4015.7 1948.79 4014.85 1948.79 4014.66 1948.79 4013.88 1948.79 4013.81 1948.92 4013.29 1950.07 4011.47 1954.34 4008.15 1958.13 4004.57 1958.13 4003.2 1958.13 4002.29 1957.25 4002.29 1954.81 4002.29 1954.14 4002.55 1952.71 4002.68 1952.04L4007.37 1932.6Z" fill-rule="evenodd"/><path d="M724 670.854 779.148 670.854 779.148 673.146 724 673.146ZM774.564 658.25 802.064 672 774.564 685.75Z"/><path d="M724 1378.85 779.147 1378.85 779.147 1381.15 724 1381.15ZM774.564 1366.25 802.064 1380 774.564 1393.75Z"/><path d="M5.29723e-06-1.14583 55.1473-1.14558 55.1472 1.14609-5.29723e-06 1.14583ZM50.564-13.7498 78.0639 0.000360892 50.5638 13.7502Z" transform="matrix(1 0 0 -1 724 2088)"/><path d="M724 906.854 1208.5 906.854 1208.5 909.146 724 909.146ZM1203.92 894.25 1231.42 908 1203.92 921.75Z"/><path d="M0.00601101-1.14582 484.508 1.3959 484.496 3.68754-0.00601101 1.14582ZM479.992-11.2321 507.419 2.66194 479.847 16.2675Z" transform="matrix(1 0 0 -1 724 1144.66)"/><path d="M0.00601251-1.14582 484.45 1.39623 484.438 3.68787-0.00601251 1.14582ZM479.933-11.2318 507.361 2.6623 479.789 16.2678Z" transform="matrix(1 0 0 -1 724 1616.66)"/><path d="M0.00301894-1.14583 482.527 0.125484 482.521 2.41714-0.00301894 1.14583ZM477.977-12.4907 505.44 1.33169 477.904 15.0092Z" transform="matrix(1 0 0 -1 724 1852.33)"/><path d="M5.06688e-06-1.14583 58.6963-1.14557 58.6963 1.14609-5.06688e-06 1.14583ZM54.113-13.7498 81.6129 0.000360892 54.1129 13.7502Z" transform="matrix(1 0 0 -1 1139 672)"/><path d="M4.48225e-06-1.14583 69.3412-1.14556 69.3411 1.1461-4.48225e-06 1.14583ZM64.7579-13.7497 92.2578 0.000360892 64.7578 13.7503Z" transform="matrix(1 0 0 -1 1139 1380)"/><path d="M4.89377e-06-1.14583 61.583-1.14557 61.583 1.1461-4.89377e-06 1.14583ZM56.9998-13.7498 84.4997 0.000360892 56.9996 13.7502Z" transform="matrix(1 0 0 -1 1139 2088)"/><path d="M1405 1373.85 1470.16 1373.85 1470.16 1376.15 1405 1376.15ZM1465.58 1361.25 1493.08 1375 1465.58 1388.75Z"/><path d="M0.0373487-1.14522 58.7451 0.769383 58.6704 3.05983-0.0373487 1.14522ZM54.575-11.9775 81.6122 2.66158 53.6786 15.5079Z" transform="matrix(1 0 0 -1 3272 1374.66)"/><path d="M0-1.14583 40.2055-1.14583 40.2055 557.062 39.0597 555.916 55.2021 555.916 55.2021 558.207 37.9139 558.207 37.9139 0 39.0597 1.14583 0 1.14583ZM50.6188 543.312 78.1188 557.062 50.6188 570.812Z" transform="matrix(1 0 0 -1 3272 1375.06)"/><path d="M3272 1373.85 3312.21 1373.85 3312.21 1937.45 3311.06 1936.31 3327.2 1936.31 3327.2 1938.6 3309.91 1938.6 3309.91 1375 3311.06 1376.15 3272 1376.15ZM3322.62 1923.7 3350.12 1937.45 3322.62 1951.2Z"/><path d="M3722 816.854 3807.31 816.855 3807.31 819.146 3722 819.146ZM3802.73 804.25 3830.23 818 3802.73 831.75Z"/><path d="M3722 1376.85 3803.76 1376.85 3803.76 1379.15 3722 1379.15ZM3799.18 1364.25 3826.68 1378 3799.18 1391.75Z"/><path d="M3.82094e-06-1.14583 85.3088-1.14555 85.3088 1.14612-3.82094e-06 1.14583ZM80.7255-13.7497 108.225 0.000360892 80.7254 13.7503Z" transform="matrix(1 0 0 -1 3722 1937)"/></g></svg>